<svg width="267" height="176" viewBox="0 0 267 176" fill="none" xmlns="http://www.w3.org/2000/svg">
<g id="Event driven sync">
<g id="mongodb">
<rect id="Rectangle 12" x="203" y="112" width="64" height="64" rx="8" fill="#023430"/>
<path id="Vector" fill-rule="evenodd" clip-rule="evenodd" d="M244.932 134.967C245.616 136.947 246.109 138.967 246.271 141.062C246.473 143.66 246.38 146.24 245.833 148.796C245.818 148.867 245.786 148.933 245.763 149.001C245.591 149.001 245.416 148.98 245.248 149.006C243.829 149.229 242.411 149.46 240.993 149.69C239.527 149.927 238.059 150.155 236.596 150.409C236.078 150.498 235.436 150.391 235.227 151.109C235.221 151.128 235.161 151.132 235.127 151.143L235.197 146.858L235.125 136.519L235.808 136.401C236.925 136.219 238.042 136.033 239.16 135.855C240.494 135.643 241.829 135.438 243.164 135.231C243.753 135.139 244.342 135.055 244.932 134.967Z" fill="#439934"/>
<path id="Vector_2" fill-rule="evenodd" clip-rule="evenodd" d="M233.716 163.634C232.996 163.014 232.25 162.422 231.56 161.771C227.843 158.266 225.125 154.14 223.787 149.166C223.418 147.798 223.172 146.406 223.093 144.992C223.038 144.002 222.957 143.003 223.027 142.018C223.214 139.399 223.592 136.805 224.36 134.282L224.403 134.223C224.477 134.322 224.585 134.41 224.623 134.522C225.372 136.731 226.117 138.941 226.857 141.152C229.184 148.101 231.508 155.052 233.839 161.999C233.884 162.135 234.002 162.246 234.087 162.368L233.716 163.634Z" fill="#45A538"/>
<path id="Vector_3" fill-rule="evenodd" clip-rule="evenodd" d="M244.932 134.967C244.342 135.055 243.752 135.139 243.163 135.23C241.829 135.437 240.493 135.643 239.159 135.855C238.042 136.032 236.925 136.218 235.808 136.401L235.125 136.518L235.12 136.072C235.097 135.706 235.058 135.34 235.054 134.974C235.025 132.639 235.006 130.303 234.977 127.968C234.959 126.506 234.933 125.045 234.903 123.583C234.884 122.675 234.865 121.767 234.824 120.86C234.802 120.373 234.723 119.888 234.691 119.401C234.673 119.121 234.698 118.838 234.704 118.557C235.052 119.232 235.393 119.912 235.751 120.582C236.316 121.641 237.218 122.421 238.029 123.272C241.236 126.637 243.513 130.549 244.932 134.967Z" fill="#46A037"/>
<path id="Vector_4" fill-rule="evenodd" clip-rule="evenodd" d="M235.126 151.142C235.161 151.131 235.221 151.128 235.226 151.108C235.435 150.391 236.077 150.498 236.595 150.409C238.059 150.155 239.526 149.927 240.992 149.689C242.41 149.46 243.828 149.229 245.247 149.006C245.415 148.979 245.59 149.001 245.762 149C245.497 149.947 245.288 150.914 244.952 151.834C244.57 152.878 244.108 153.897 243.617 154.896C242.882 156.386 241.973 157.783 240.909 159.058C240.09 160.042 239.179 160.951 238.265 161.85C237.759 162.346 237.164 162.751 236.61 163.197L236.466 163.099L235.948 162.657L235.413 161.483C235.047 160.114 234.848 158.706 234.819 157.289L234.828 157.05L234.901 156.015C234.926 155.662 234.958 155.31 234.973 154.956C235.028 153.685 235.076 152.414 235.126 151.142Z" fill="#409433"/>
<path id="Vector_5" fill-rule="evenodd" clip-rule="evenodd" d="M235.126 151.142C235.076 152.414 235.028 153.685 234.974 154.957C234.959 155.31 234.927 155.663 234.902 156.016L234.576 156.139C233.852 154.007 233.127 151.897 232.418 149.782C231.246 146.282 230.088 142.777 228.917 139.276C227.971 136.451 227.019 133.628 226.061 130.807C226.016 130.674 225.887 130.571 225.798 130.454L227.885 126.617C227.956 126.741 228.051 126.858 228.096 126.991C229.063 129.849 230.025 132.708 230.982 135.568C232.225 139.29 233.46 143.015 234.703 146.737C234.752 146.886 234.834 147.023 234.912 147.189L235.197 146.857L235.126 151.142Z" fill="#4FAA41"/>
<path id="Vector_6" fill-rule="evenodd" clip-rule="evenodd" d="M225.798 130.455C225.887 130.572 226.016 130.675 226.061 130.807C227.019 133.628 227.972 136.451 228.917 139.277C230.088 142.777 231.246 146.282 232.418 149.782C233.127 151.897 233.852 154.007 234.576 156.14L234.903 156.016L234.83 157.051L234.764 157.289C234.65 158.421 234.555 159.556 234.417 160.686C234.347 161.252 234.2 161.808 234.087 162.369C234.003 162.246 233.885 162.135 233.839 161.999C231.508 155.052 229.184 148.101 226.858 141.152C226.117 138.941 225.372 136.731 224.623 134.523C224.585 134.411 224.478 134.323 224.403 134.223L225.798 130.455Z" fill="#4AA73C"/>
<path id="Vector_7" fill-rule="evenodd" clip-rule="evenodd" d="M235.197 146.857L234.911 147.19C234.833 147.023 234.751 146.885 234.702 146.737C233.46 143.015 232.224 139.29 230.981 135.568C230.024 132.708 229.062 129.849 228.096 126.992C228.051 126.858 227.956 126.741 227.884 126.617L230.466 123.221C230.547 123.33 230.663 123.427 230.705 123.549C231.422 125.647 232.132 127.748 232.838 129.849C233.498 131.812 234.147 133.778 234.814 135.738C234.859 135.869 235.015 135.962 235.119 136.073L235.124 136.519C235.149 139.964 235.173 143.411 235.197 146.857Z" fill="#57AE47"/>
<path id="Vector_8" fill-rule="evenodd" clip-rule="evenodd" d="M235.12 136.072C235.016 135.962 234.86 135.869 234.815 135.737C234.148 133.777 233.499 131.811 232.839 129.849C232.133 127.747 231.423 125.647 230.706 123.549C230.664 123.426 230.548 123.329 230.467 123.221C231.306 122.399 232.119 121.547 232.992 120.763C233.769 120.067 234.393 119.32 234.421 118.219C234.423 118.174 234.447 118.128 234.483 118L234.705 118.557C234.699 118.839 234.674 119.12 234.692 119.4C234.724 119.888 234.803 120.372 234.825 120.86C234.866 121.767 234.885 122.675 234.904 123.583C234.933 125.044 234.96 126.506 234.978 127.968C235.007 130.303 235.026 132.638 235.055 134.974C235.058 135.341 235.097 135.706 235.12 136.072Z" fill="#60B24F"/>
<path id="Vector_9" fill-rule="evenodd" clip-rule="evenodd" d="M234.087 162.368C234.199 161.807 234.346 161.251 234.416 160.685C234.554 159.556 234.649 158.421 234.763 157.288L234.791 157.284L234.819 157.289C234.848 158.706 235.048 160.114 235.413 161.483C235.338 161.582 235.232 161.67 235.193 161.782C234.883 162.656 234.591 163.537 234.279 164.41C234.236 164.53 234.118 164.623 234.034 164.728L233.716 163.634L234.087 162.368Z" fill="#A9AA88"/>
<path id="Vector_10" fill-rule="evenodd" clip-rule="evenodd" d="M234.035 164.728C234.118 164.623 234.237 164.531 234.279 164.411C234.591 163.537 234.883 162.657 235.193 161.782C235.233 161.671 235.338 161.583 235.414 161.484L235.949 162.658C235.843 162.808 235.697 162.943 235.638 163.11L234.614 166.119C234.571 166.24 234.427 166.325 234.331 166.427L234.035 164.728Z" fill="#B6B598"/>
<path id="Vector_11" fill-rule="evenodd" clip-rule="evenodd" d="M234.331 166.427C234.428 166.325 234.571 166.24 234.614 166.119L235.639 163.11C235.697 162.943 235.843 162.807 235.949 162.657L236.467 163.099C236.217 163.347 236.078 163.632 236.161 163.993L236.004 164.508C235.932 164.597 235.829 164.673 235.793 164.774C235.436 165.799 235.094 166.829 234.734 167.853C234.688 167.983 234.562 168.085 234.472 168.199C234.426 167.608 234.378 167.018 234.331 166.427Z" fill="#C2C1A7"/>
<path id="Vector_12" fill-rule="evenodd" clip-rule="evenodd" d="M234.472 168.199C234.562 168.085 234.688 167.983 234.734 167.853C235.094 166.829 235.436 165.799 235.794 164.774C235.829 164.674 235.932 164.597 236.004 164.508L235.787 166.872C235.729 166.939 235.645 166.998 235.618 167.076C235.372 167.764 235.141 168.457 234.895 169.145C234.845 169.287 234.747 169.412 234.672 169.545C234.604 169.457 234.484 169.371 234.478 169.279C234.456 168.921 234.471 168.56 234.472 168.199Z" fill="#CECDB7"/>
<path id="Vector_13" fill-rule="evenodd" clip-rule="evenodd" d="M234.671 169.545C234.747 169.412 234.844 169.286 234.895 169.145C235.141 168.457 235.372 167.764 235.617 167.075C235.645 166.997 235.729 166.939 235.787 166.872L235.792 168.424L235.273 169.756L234.671 169.545Z" fill="#DBDAC7"/>
<path id="Vector_14" fill-rule="evenodd" clip-rule="evenodd" d="M235.273 169.756L235.792 168.424L235.899 170L235.273 169.756Z" fill="#EBE9DC"/>
<path id="Vector_15" fill-rule="evenodd" clip-rule="evenodd" d="M236.161 163.994C236.078 163.633 236.216 163.347 236.467 163.1L236.611 163.198L236.161 163.994Z" fill="#CECDB7"/>
<path id="Vector_16" fill-rule="evenodd" clip-rule="evenodd" d="M234.819 157.29L234.791 157.285L234.763 157.289L234.829 157.051L234.819 157.29Z" fill="#4FAA41"/>
</g>
<path id="python-to-mongodb" fill-rule="evenodd" clip-rule="evenodd" d="M234 78.25C234.414 78.25 234.75 78.5858 234.75 79L234.75 95.1893L237.22 92.7197C237.513 92.4268 237.987 92.4268 238.28 92.7197C238.573 93.0126 238.573 93.4874 238.28 93.7803L234.53 97.5303C234.237 97.8232 233.763 97.8232 233.47 97.5303L229.72 93.7803C229.427 93.4874 229.427 93.0126 229.72 92.7197C230.013 92.4268 230.487 92.4268 230.78 92.7197L233.25 95.1893L233.25 79C233.25 78.5858 233.586 78.25 234 78.25Z" fill="white"/>
<g id="postgresql">
<path id="Vector_17" d="M47.9156 157.686C48.3385 154.273 48.2119 153.772 50.8333 154.325L51.4986 154.381C53.5145 154.47 56.1514 154.067 57.7008 153.369C61.0359 151.868 63.013 149.363 59.7252 150.021C52.2242 151.522 51.7087 149.059 51.7087 149.059C59.6293 137.663 62.9403 123.196 60.0819 119.654C52.2867 109.996 38.7937 114.563 38.568 114.681L38.4958 114.694C37.0138 114.396 35.3551 114.218 33.4917 114.189C30.0973 114.134 27.5217 115.052 25.5678 116.488C25.5678 116.488 1.49666 106.871 2.61664 128.582C2.85475 133.201 9.44317 163.53 17.3019 154.369C20.1743 151.019 22.9497 148.187 22.9497 148.187C24.3277 149.074 25.9783 149.528 27.7086 149.365L27.8428 149.254C27.8008 149.67 27.8191 150.077 27.8961 150.559C25.8722 152.752 26.4669 153.137 22.4196 153.945C18.3243 154.763 20.7302 156.22 22.3005 156.601C24.2049 157.062 28.6099 157.716 31.5868 153.676L31.4683 154.137C32.2624 154.753 32.209 158.565 32.3211 161.289C32.4337 164.012 32.6217 166.554 33.1943 168.053C33.767 169.551 34.4425 173.41 39.7617 172.305C44.2072 171.383 47.6059 170.054 47.9156 157.686Z" fill="black"/>
<path id="Vector_18" d="M38.0298 175C35.6772 175 34.1452 174.118 33.2148 173.266C31.8104 171.981 31.2534 170.325 30.9204 169.336L30.7766 168.923C30.1064 167.169 29.8791 164.643 29.7444 161.391C29.724 160.903 29.71 160.399 29.6943 159.866C29.683 159.476 29.669 158.986 29.6485 158.474C28.801 158.866 27.9013 159.142 26.9755 159.294C25.3168 159.568 23.5337 159.48 21.6746 159.029C20.3628 158.711 18.9999 158.051 18.2231 157.033C15.9589 158.956 13.7992 158.695 12.6226 158.315C10.547 157.643 8.68952 155.757 6.94356 152.549C5.69968 150.263 4.49674 147.286 3.36761 143.698C1.40132 137.45 0.152049 130.869 0.0410745 128.709C-0.308009 121.946 1.56939 117.11 5.61995 114.335C12.0096 109.959 21.6907 112.533 25.2204 113.701C27.5918 112.315 30.3817 111.641 33.5343 111.689C35.2274 111.716 36.8398 111.86 38.3374 112.119C39.8996 111.643 42.9854 110.959 46.5177 111.002C53.0258 111.077 58.4189 113.537 62.1128 118.114C64.7492 121.38 63.4456 128.239 62.4344 132.037C61.0111 137.379 58.5174 143.061 55.4543 148.007C56.2861 148.012 57.4912 147.916 59.2043 147.572C62.5842 146.896 63.5727 148.653 63.841 149.44C64.9157 152.596 60.244 154.982 58.7868 155.638C56.9196 156.478 53.8754 156.99 51.3822 156.88L51.2734 156.873L50.6183 156.817L50.5537 157.347L50.4912 157.864C50.3237 164.133 49.4003 168.102 47.5003 170.725C45.5087 173.475 42.7408 174.246 40.3026 174.752C39.4708 174.925 38.715 175 38.0298 175ZM33.079 152.186C34.5977 153.365 34.7307 155.582 34.8498 159.727C34.8649 160.244 34.8789 160.733 34.8977 161.19C34.9548 162.575 35.089 165.816 35.6126 167.186C35.6864 167.38 35.7527 167.576 35.8227 167.785C36.4061 169.517 36.6986 170.386 39.2214 169.863C41.3391 169.422 42.4278 169.027 43.2801 167.851C44.5185 166.141 45.2113 162.7 45.3385 157.625L47.9151 157.686L45.3562 157.388L45.4317 156.768C45.6768 154.726 45.8535 153.25 47.2611 152.275C48.3908 151.492 49.6778 151.568 50.7029 151.747C49.5765 150.922 49.2651 149.954 49.1822 149.557L48.9672 148.53L49.5711 147.661C53.0495 142.657 55.9176 136.506 57.4411 130.786C59.0066 124.908 58.5293 121.787 58.052 121.197C51.7335 113.367 40.7767 116.6 39.6324 116.967L39.4391 117.068L38.4694 117.243L37.9727 117.143C36.6033 116.867 35.082 116.715 33.4513 116.689C30.8892 116.647 28.8222 117.235 27.1274 118.482L25.9514 119.346L24.5868 118.801C21.6713 117.645 13.108 115.321 8.58932 118.425C6.08109 120.148 4.93848 123.523 5.19275 128.458C5.27679 130.088 6.41832 136.256 8.30165 142.238C10.9042 150.505 13.2691 153.251 14.2565 153.57C14.4289 153.627 14.8761 153.29 15.321 152.771C17.1764 150.615 19.0975 148.512 21.082 146.466L22.5742 144.943L24.3784 146.106C25.1056 146.574 25.9077 146.84 26.7314 146.89L31.0341 143.332L30.4108 149.5C30.3968 149.639 30.3898 149.827 30.4458 150.177L30.6333 151.346L29.8199 152.228L29.7261 152.33L32.09 153.388L33.079 152.186Z" fill="black"/>
<path id="Vector_19" d="M59.7252 150.021C52.2237 151.522 51.7082 149.059 51.7082 149.059C59.6288 137.662 62.9397 123.195 60.0824 119.654C52.2873 109.996 38.7931 114.564 38.568 114.682L38.4952 114.695C37.0132 114.396 35.3545 114.219 33.4901 114.19C30.0957 114.136 27.5212 115.053 25.5673 116.489C25.5673 116.489 1.49558 106.873 2.61502 128.583C2.85313 133.202 9.44154 163.531 17.3002 154.37C20.1726 151.021 22.9475 148.188 22.9475 148.188C24.3261 149.076 25.9762 149.529 27.706 149.366L27.8406 149.256C27.7986 149.672 27.818 150.078 27.8945 150.56C25.87 152.754 26.4648 153.139 22.4174 153.946C18.3222 154.764 20.728 156.221 22.2989 156.602C24.2027 157.064 28.6083 157.718 31.5847 153.678L31.4656 154.139C32.2591 154.755 32.8162 158.146 32.723 161.221C32.6292 164.295 32.5667 166.406 33.1922 168.055C33.8171 169.703 34.4398 173.412 39.7601 172.307C44.2055 171.383 46.5091 168.989 46.8301 164.996C47.0575 162.157 47.5719 162.577 47.6048 160.039L48.018 158.837C48.4942 154.988 48.0934 153.747 50.8328 154.325L51.4981 154.381C53.5139 154.47 56.152 154.066 57.7008 153.369C61.0354 151.869 63.013 149.363 59.7252 150.021Z" fill="#336791"/>
<path id="Vector_20" d="M38.2986 173.46C33.8639 173.46 32.459 170.054 31.8842 168.661C31.0427 166.62 30.8612 158.7 31.0486 152.204C31.0514 152.095 31.0765 151.987 31.1225 151.887C31.1685 151.787 31.2344 151.696 31.3166 151.621C31.3987 151.546 31.4954 151.487 31.601 151.448C31.7066 151.409 31.8192 151.391 31.9321 151.395C32.0449 151.397 32.1561 151.422 32.2591 151.467C32.3621 151.511 32.4551 151.575 32.5327 151.655C32.6102 151.734 32.6708 151.828 32.7111 151.93C32.7513 152.032 32.7703 152.141 32.7671 152.251C32.5511 159.742 32.8576 166.532 33.4804 168.042C34.4522 170.398 35.9261 172.458 40.093 171.593C44.0488 170.77 45.5302 169.315 46.1901 165.606C46.6965 162.759 47.698 154.661 47.8213 153.063C47.8296 152.954 47.86 152.847 47.9108 152.749C47.9616 152.652 48.0318 152.565 48.1174 152.493C48.2029 152.422 48.3022 152.367 48.4095 152.333C48.5168 152.299 48.63 152.286 48.7425 152.294C48.9698 152.311 49.1809 152.414 49.3296 152.582C49.4782 152.749 49.5523 152.967 49.5355 153.187C49.4068 154.851 48.4102 162.934 47.8844 165.89C47.1054 170.271 45.0912 172.258 40.4534 173.222C39.6653 173.386 38.9493 173.459 38.2986 173.46ZM14.2527 156.826C13.8651 156.825 13.4802 156.763 13.1128 156.643C10.2324 155.711 7.48871 151.162 4.95785 143.121C3.03143 137 1.81071 130.611 1.70351 128.534C1.38621 122.378 3.02065 118.023 6.56267 115.59C13.5697 110.776 25.3572 115.36 25.8555 115.558C26.0666 115.642 26.2348 115.803 26.3231 116.007C26.4114 116.211 26.4125 116.44 26.3263 116.645C26.2401 116.85 26.0735 117.013 25.8633 117.098C25.653 117.184 25.4163 117.185 25.2052 117.102C25.0916 117.057 13.7884 112.665 7.55281 116.953C4.52419 119.035 3.13378 122.904 3.41984 128.451C3.5098 130.201 4.65025 136.436 6.60145 142.634C8.8608 149.813 11.4321 154.342 13.6564 155.062C14.0055 155.175 15.0678 155.518 16.5864 153.747C18.3574 151.684 20.1948 149.676 22.0958 147.726C22.2549 147.572 22.4697 147.484 22.6944 147.482C22.9191 147.48 23.1357 147.563 23.2979 147.714C23.4601 147.865 23.555 148.071 23.5623 148.289C23.5696 148.507 23.4888 148.718 23.337 148.879C23.3111 148.905 20.7259 151.526 17.9084 154.813C16.574 156.369 15.2951 156.826 14.2527 156.826ZM51.6548 149.802C51.499 149.802 51.3461 149.761 51.2126 149.683C51.0791 149.605 50.9699 149.493 50.8968 149.36C50.8236 149.226 50.7892 149.076 50.7973 148.925C50.8054 148.774 50.8556 148.628 50.9426 148.503C58.9495 136.982 61.7599 123.06 59.353 120.077C56.3233 116.323 52.0454 114.363 46.6373 114.249C42.633 114.166 39.4503 115.157 38.9299 115.33L38.799 115.382C38.276 115.541 37.8746 115.263 37.7232 114.938C37.6369 114.752 37.6238 114.542 37.6865 114.347C37.7491 114.152 37.8831 113.986 38.0632 113.88C38.0879 113.866 38.1666 113.834 38.2943 113.789C39.1783 113.475 42.4095 112.534 46.4115 112.579C52.3955 112.64 57.3387 114.878 60.7057 119.05C62.2986 121.024 62.3024 125.572 60.7159 131.529C59.0987 137.602 56.0555 144.128 52.3675 149.435C52.2027 149.674 51.9312 149.802 51.6548 149.802ZM52.0642 155.136C50.697 155.136 49.4714 154.949 48.7377 154.523C47.9835 154.084 47.8397 153.489 47.8208 153.173C47.615 149.667 49.6093 149.057 50.6264 148.779C50.4847 148.571 50.2832 148.326 50.0748 148.074C49.4817 147.355 48.6693 146.371 48.0433 144.899C47.9452 144.669 47.6382 144.135 47.2826 143.516C45.3546 140.163 41.3428 133.186 43.92 129.614C45.1127 127.96 47.4879 127.309 50.9873 127.672C49.9579 124.631 45.0556 115.117 33.4233 114.932C29.9249 114.876 27.0557 115.919 24.8998 118.03C20.073 122.757 20.2475 131.31 20.2502 131.396C20.2532 131.505 20.2339 131.614 20.1934 131.717C20.153 131.819 20.0922 131.912 20.0145 131.992C19.9368 132.071 19.8438 132.135 19.7407 132.179C19.6376 132.224 19.5264 132.248 19.4136 132.251C19.3007 132.254 19.1884 132.235 19.083 132.196C18.9777 132.157 18.8813 132.098 18.7994 132.023C18.7175 131.947 18.6517 131.857 18.6058 131.757C18.5599 131.657 18.5347 131.549 18.5317 131.44C18.5209 131.06 18.341 122.084 23.6785 116.857C26.1765 114.41 29.4648 113.202 33.4518 113.266C40.8935 113.384 45.6837 117.053 48.3913 120.11C51.3429 123.441 52.7899 127.115 52.9089 128.342C52.9978 129.254 52.3228 129.436 52.1865 129.464L51.8762 129.47C48.4419 128.937 46.2386 129.307 45.3277 130.57C43.3673 133.287 47.1625 139.886 48.7829 142.704C49.1967 143.423 49.4951 143.943 49.632 144.264C50.1642 145.515 50.8586 146.356 51.4162 147.032C51.9069 147.627 52.332 148.143 52.4839 148.748C52.5544 148.868 53.5559 150.304 59.4984 149.115C60.9879 148.817 61.8811 149.071 62.1542 149.872C62.6913 151.447 59.6778 153.285 58.0094 154.036C56.5145 154.71 54.1286 155.136 52.0642 155.136ZM49.5344 153.035C49.723 153.22 50.6663 153.538 52.6196 153.456C54.3564 153.384 56.188 153.018 57.287 152.523C58.6925 151.89 59.6309 151.182 60.1169 150.699L59.8475 150.747C56.048 151.508 53.3604 151.407 51.8595 150.446C51.7587 150.381 51.6616 150.311 51.5686 150.236C51.4059 150.299 51.2556 150.339 51.1484 150.369C50.2973 150.6 49.417 150.84 49.5344 153.035ZM24.9898 157.693C24.0459 157.693 23.0526 157.568 22.0382 157.322C20.9872 157.067 19.2153 156.299 19.2423 155.039C19.273 153.625 21.3939 153.2 22.1922 153.041C25.0765 152.465 25.2645 152.234 26.1658 151.124C26.4287 150.801 26.7557 150.398 27.2017 149.915C27.8638 149.196 28.5873 148.832 29.3522 148.832C29.885 148.832 30.3219 149.007 30.6107 149.124C31.5308 149.493 32.2984 150.388 32.6141 151.457C32.8991 152.422 32.7628 153.351 32.2316 154.072C30.4878 156.44 27.9834 157.693 24.9898 157.693ZM21.0992 155.11C21.3583 155.305 21.8776 155.564 22.4557 155.704C23.3343 155.917 24.1865 156.026 24.9903 156.026C27.4393 156.026 29.4056 155.042 30.8337 153.103C31.1316 152.699 31.0422 152.185 30.9624 151.915C30.7954 151.35 30.3806 150.835 29.9534 150.663C29.7218 150.57 29.5295 150.499 29.3528 150.499C29.258 150.499 28.9692 150.499 28.4833 151.026C28.148 151.392 27.8256 151.769 27.5168 152.156C26.3942 153.538 25.8797 154.007 22.5397 154.674C21.7246 154.836 21.3066 155.001 21.0992 155.11ZM27.7086 151.265C27.5034 151.265 27.3051 151.194 27.1495 151.064C26.9939 150.934 26.8913 150.755 26.8602 150.558C26.8388 150.42 26.8244 150.28 26.8171 150.141C24.6278 150.101 22.5155 149.19 20.9117 147.567C18.884 145.516 17.9612 142.674 18.3803 139.77C18.8355 136.616 18.6653 133.832 18.5737 132.336C18.5484 131.921 18.5301 131.62 18.5312 131.412C18.5328 131.148 18.5382 130.449 20.9494 129.264C21.8071 128.842 23.5266 128.106 25.4051 127.918C28.5172 127.606 30.5686 128.95 31.1828 131.703C32.8404 139.136 31.3142 142.423 30.1996 144.824C29.9922 145.271 29.7961 145.694 29.6394 146.103L29.5009 146.463C28.9121 147.994 28.403 149.317 28.5592 150.305C28.5764 150.413 28.5714 150.523 28.5445 150.63C28.5177 150.736 28.4695 150.836 28.4027 150.924C28.3359 151.013 28.2518 151.087 28.1553 151.144C28.0588 151.201 27.9517 151.238 27.8401 151.255L27.7086 151.265ZM20.2556 131.643L20.289 132.238C20.3838 133.792 20.5605 136.683 20.0821 140.001C19.7368 142.396 20.491 144.734 22.1524 146.414C23.4652 147.742 25.1929 148.475 26.9684 148.475H27.0051C27.2039 147.662 27.5341 146.805 27.8896 145.881L28.027 145.522C28.2042 145.06 28.4116 144.613 28.6314 144.14C29.704 141.829 31.0395 138.952 29.5015 132.056C29.1971 130.69 28.4585 129.899 27.2448 129.639C24.7517 129.105 21.0362 130.923 20.2556 131.643ZM25.4434 131.289C25.4003 131.584 25.9998 132.371 26.782 132.476C27.5626 132.582 28.2306 131.966 28.2732 131.672C28.3158 131.377 27.7167 131.052 26.9345 130.947C26.1528 130.841 25.4848 130.995 25.4434 131.289ZM26.9614 132.766L26.7422 132.751C26.2573 132.686 25.7671 132.39 25.4315 131.958C25.3135 131.807 25.1212 131.513 25.1595 131.251C25.2139 130.866 25.6976 130.636 26.4524 130.636C26.621 130.636 26.7966 130.648 26.9733 130.672C27.3859 130.727 27.769 130.843 28.0518 130.996C28.542 131.261 28.5781 131.557 28.556 131.71C28.4957 132.135 27.7991 132.766 26.9614 132.766ZM25.7283 131.339C25.7526 131.52 26.2169 132.12 26.8214 132.201L26.962 132.21C27.5201 132.21 27.937 131.785 27.9861 131.645C27.9343 131.55 27.5756 131.314 26.8952 131.222C26.7487 131.202 26.6009 131.191 26.4529 131.191C26.0155 131.191 25.7833 131.287 25.7283 131.339ZM49.2188 130.688C49.2613 130.983 48.6623 131.77 47.8806 131.875C47.0995 131.981 46.4309 131.366 46.3878 131.071C46.3469 130.776 46.9459 130.451 47.7271 130.346C48.5082 130.24 49.1757 130.394 49.2188 130.688ZM47.7001 132.026C46.9481 132.026 46.299 131.458 46.2456 131.09C46.1837 130.648 46.9341 130.312 47.7066 130.208C47.8768 130.185 48.0454 130.174 48.2076 130.174C48.8745 130.174 49.3163 130.363 49.3604 130.669C49.389 130.867 49.2322 131.173 48.9623 131.449C48.784 131.63 48.4096 131.944 47.8995 132.012L47.7001 132.026ZM48.2081 130.452C48.0595 130.452 47.9043 130.462 47.747 130.483C46.9707 130.588 46.5074 130.89 46.5301 131.052C46.5559 131.23 47.0515 131.748 47.7007 131.748L47.8607 131.737C48.2846 131.68 48.603 131.412 48.7549 131.257C48.9936 131.014 49.0884 130.785 49.0771 130.707C49.062 130.604 48.7754 130.452 48.2081 130.452ZM50.3441 147.609C50.1884 147.609 50.0356 147.568 49.902 147.49C49.7684 147.412 49.6592 147.301 49.5859 147.168C49.5126 147.035 49.4781 146.884 49.486 146.734C49.494 146.583 49.544 146.437 49.6309 146.312C51.4614 143.66 51.1263 140.957 50.8026 138.342C50.6641 137.229 50.5219 136.077 50.5585 134.971C50.5962 133.834 50.7455 132.896 50.8893 131.988C51.0601 130.913 51.2217 129.898 51.1549 128.692C51.1488 128.583 51.165 128.473 51.2025 128.37C51.24 128.267 51.2981 128.172 51.3735 128.09C51.4489 128.009 51.54 127.943 51.6418 127.896C51.7436 127.848 51.854 127.821 51.9667 127.815C52.0794 127.809 52.1922 127.825 52.2986 127.861C52.4051 127.897 52.5031 127.954 52.5871 128.027C52.6711 128.1 52.7394 128.188 52.7882 128.287C52.8369 128.386 52.8651 128.493 52.8712 128.602C52.9477 129.98 52.7651 131.13 52.5884 132.242C52.4521 133.1 52.311 133.988 52.277 135.025C52.2442 136.004 52.3729 137.043 52.5092 138.143C52.854 140.924 53.2445 144.075 51.0595 147.239C50.9808 147.353 50.8744 147.446 50.7496 147.511C50.6248 147.575 50.4855 147.609 50.3441 147.609Z" fill="white"/>
</g>
<path id="sping-to-postgresql" fill-rule="evenodd" clip-rule="evenodd" d="M32 78.25C32.4142 78.25 32.75 78.5858 32.75 79L32.75 95.1893L35.2197 92.7197C35.5126 92.4268 35.9874 92.4268 36.2803 92.7197C36.5732 93.0126 36.5732 93.4874 36.2803 93.7803L32.5303 97.5303C32.2374 97.8232 31.7626 97.8232 31.4697 97.5303L27.7197 93.7803C27.4268 93.4874 27.4268 93.0126 27.7197 92.7197C28.0126 92.4268 28.4874 92.4268 28.7803 92.7197L31.25 95.1893L31.25 79C31.25 78.5858 31.5858 78.25 32 78.25Z" fill="white"/>
<g id="python">
<path id="Vector_21" d="M231.619 0.000447429C228.979 0.0116986 226.46 0.213658 224.242 0.566945C217.709 1.60543 216.524 3.77916 216.524 7.78853V13.0828H231.96V14.8475H210.73C206.244 14.8475 202.316 17.2739 201.087 21.8913C199.669 27.1822 199.607 30.4845 201.087 36.0094C202.184 40.1222 204.805 43.052 209.291 43.052H214.599V36.7052C214.599 32.1198 219.007 28.0756 224.243 28.0756H239.662C243.954 28.0756 247.379 24.8949 247.379 21.0166V7.78909C247.379 4.02388 243.85 1.19589 239.662 0.567508C237.008 0.170341 234.257 -0.0102412 231.619 0.000447429ZM223.27 4.25847C224.865 4.25847 226.167 5.4494 226.167 6.91431C226.167 8.37303 224.865 9.55272 223.27 9.55272C221.67 9.55272 220.374 8.37303 220.374 6.91431C220.374 5.4494 221.67 4.25847 223.27 4.25847Z" fill="url(#paint0_linear_249_26)"/>
<path id="Vector_22" d="M249.304 14.8475V21.0165C249.304 25.7983 244.798 29.8234 239.661 29.8234H224.242C220.018 29.8234 216.524 33.0767 216.524 36.883V50.1116C216.524 53.8757 220.161 56.0905 224.242 57.17C229.128 58.4622 233.814 58.6962 239.661 57.17C243.547 56.1568 247.379 54.1193 247.379 50.1116V44.8168H231.96V43.0514H255.098C259.584 43.0514 261.257 40.2358 262.817 36.0088C264.429 31.6573 264.359 27.4725 262.817 21.8907C261.708 17.8712 259.591 14.8469 255.098 14.8469L249.304 14.8475ZM240.632 48.3463C242.233 48.3463 243.529 49.5259 243.529 50.9858C243.529 52.4496 242.232 53.6405 240.632 53.6405C239.038 53.6405 237.735 52.4496 237.735 50.9858C237.735 49.5259 239.038 48.3463 240.632 48.3463Z" fill="url(#paint1_linear_249_26)"/>
<path id="Vector_23" opacity="0.444" d="M252.822 60.3907C252.822 62.3839 243.56 64.0001 232.135 64.0001C220.71 64.0001 211.448 62.3839 211.448 60.3907C211.448 58.397 220.71 56.7808 232.135 56.7808C243.56 56.7808 252.822 58.3964 252.822 60.3907Z" fill="url(#paint2_radial_249_26)"/>
</g>
<path id="redis-to-python" fill-rule="evenodd" clip-rule="evenodd" d="M174.5 37C174.5 36.1716 175.172 35.5 176 35.5C176.828 35.5 177.5 36.1716 177.5 37C177.5 37.8284 176.828 38.5 176 38.5C175.172 38.5 174.5 37.8284 174.5 37ZM180.5 37C180.5 36.1716 181.172 35.5 182 35.5C182.828 35.5 183.5 36.1716 183.5 37C183.5 37.8284 182.828 38.5 182 38.5C181.172 38.5 180.5 37.8284 180.5 37ZM186.5 37C186.5 36.1716 187.172 35.5 188 35.5C188.828 35.5 189.5 36.1716 189.5 37C189.5 37.8284 188.828 38.5 188 38.5C187.172 38.5 186.5 37.8284 186.5 37Z" fill="white"/>
<g id="redis">
<path id="Vector_24" d="M161.488 50.3307C158.072 52.4158 140.381 60.8752 136.608 63.1986C132.835 65.522 130.744 65.4624 127.787 63.7943C124.83 62.1263 106.017 53.3094 102.601 51.4031C100.918 50.4499 100.052 49.6754 100.052 48.901V41.3352C100.052 41.3352 124.524 35.08 128.501 33.4715C132.478 31.8034 133.804 31.7438 137.169 33.1736C140.534 34.6034 160.673 38.8331 163.987 40.2628V47.7095C163.987 48.484 163.222 49.318 161.488 50.3307Z" fill="#A41E11"/>
<path id="Vector_25" d="M161.488 42.8246C158.072 44.9096 140.381 53.3691 136.608 55.6924C132.835 58.0158 130.745 57.9562 127.787 56.2882C124.83 54.6201 106.017 45.7437 102.601 43.8373C99.2358 41.931 99.1338 40.6204 102.448 39.131C105.762 37.5821 124.473 29.0035 128.45 27.3951C132.427 25.727 133.753 25.6674 137.118 27.0972C140.483 28.5269 158.072 36.6885 161.386 38.1183C164.802 39.548 164.904 40.7395 161.488 42.8246Z" fill="#D82C20"/>
<path id="Vector_26" d="M161.488 38.0585C158.072 40.1436 140.381 48.603 136.608 50.9264C132.835 53.1902 130.744 53.1902 127.787 51.5221C124.83 49.8541 106.017 40.9776 102.601 39.0713C100.918 38.1181 100.052 37.3437 100.052 36.5692V29.0034C100.052 29.0034 124.524 22.7482 128.501 21.1397C132.478 19.4716 133.804 19.4121 137.169 20.8418C140.534 22.2716 160.673 26.5013 163.987 27.9311V35.3777C163.987 36.1522 163.222 36.9862 161.488 38.0585Z" fill="#A41E11"/>
<path id="Vector_27" d="M161.488 30.4928C158.072 32.5779 140.381 41.0373 136.608 43.3606C132.835 45.6244 130.744 45.6244 127.787 43.9564C124.83 42.2883 106.017 33.4119 102.601 31.5055C99.1848 29.5992 99.1338 28.2886 102.448 26.7992C105.762 25.2503 124.473 16.6717 128.45 15.0633C132.427 13.3952 133.753 13.3356 137.118 14.7654C140.483 16.1952 158.072 24.3567 161.386 25.7865C164.802 27.2162 164.904 28.4077 161.488 30.4928Z" fill="#D82C20"/>
<path id="Vector_28" d="M161.489 25.2502C158.073 27.3353 140.381 35.7947 136.608 38.118C132.835 40.3818 130.745 40.3818 127.788 38.7138C124.83 37.1053 106.017 28.2289 102.601 26.3225C100.918 25.3693 100.001 24.5949 100.001 23.8204V16.2546C100.001 16.2546 124.473 9.99938 128.45 8.3909C132.427 6.72284 133.753 6.66327 137.118 8.09303C140.483 9.5228 160.622 13.7525 163.936 15.1823V22.629C163.987 23.4034 163.222 24.1779 161.489 25.2502Z" fill="#A41E11"/>
<path id="Vector_29" d="M161.488 17.6844C158.072 19.7695 140.381 28.2289 136.608 30.5523C132.835 32.8161 130.744 32.8161 127.787 31.148C124.83 29.48 106.017 20.6631 102.601 18.7568C99.1848 16.8504 99.1338 15.5398 102.448 14.0505C105.762 12.5015 124.473 3.92297 128.45 2.31449C132.427 0.646429 133.753 0.586855 137.118 2.01662C140.483 3.44638 158.072 11.6079 161.386 13.0377C164.802 14.4675 164.904 15.6589 161.488 17.6844Z" fill="#D82C20"/>
<path id="Vector_30" d="M140.381 10.4165L134.874 11.1314L133.6 14.5867L131.611 10.7144L125.238 10.0591L129.98 8.03361L128.552 4.93579L133.039 6.96129L137.22 5.35281L136.098 8.56977L140.381 10.4165ZM133.294 27.3354L122.944 22.3312L137.78 19.71L133.294 27.3354Z" fill="white"/>
<path id="Vector_31" d="M118.967 19.5311C123.331 19.5311 126.87 17.9308 126.87 15.9567C126.87 13.9826 123.331 12.3823 118.967 12.3823C114.602 12.3823 111.064 13.9826 111.064 15.9567C111.064 17.9308 114.602 19.5311 118.967 19.5311Z" fill="white"/>
<path id="Vector_32" d="M146.958 11.3696L155.727 15.4206L146.958 19.4716V11.3696Z" fill="#7A0C00"/>
<path id="Vector_33" d="M137.271 15.8972L146.958 11.3696V19.4716L145.989 19.9482L137.271 15.8972Z" fill="#AD2115"/>
</g>
<path id="spring-to-redis" fill-rule="evenodd" clip-rule="evenodd" d="M74.5 35C74.5 34.1716 75.1716 33.5 76 33.5C76.8284 33.5 77.5 34.1716 77.5 35C77.5 35.8284 76.8284 36.5 76 36.5C75.1716 36.5 74.5 35.8284 74.5 35ZM80.5 35C80.5 34.1716 81.1716 33.5 82 33.5C82.8284 33.5 83.5 34.1716 83.5 35C83.5 35.8284 82.8284 36.5 82 36.5C81.1716 36.5 80.5 35.8284 80.5 35ZM86.5 35C86.5 34.1716 87.1716 33.5 88 33.5C88.8284 33.5 89.5 34.1716 89.5 35C89.5 35.8284 88.8284 36.5 88 36.5C87.1716 36.5 86.5 35.8284 86.5 35Z" fill="white"/>
<g id="spring">
<path id="Vector_34" d="M58.2024 4.33315C57.3064 6.48261 56.1594 8.51859 54.7852 10.3987C48.7647 4.38157 40.6014 1.00103 32.0895 1C14.4861 1 2.97416e-08 15.4981 2.97416e-08 33.1209C-0.00018716 37.4727 0.883242 41.7792 2.59675 45.7794C4.31025 49.7796 6.81815 53.3903 9.96845 56.3925L11.152 57.4421C16.9361 62.3188 24.257 64.9956 31.8226 65C48.5593 65 62.6286 51.8853 63.8201 35.1706C64.6952 26.9884 62.2952 16.6396 58.2024 4.33315ZM14.5276 56.5754C14.2699 56.8929 13.9447 57.1489 13.5756 57.3247C13.2065 57.5006 12.8028 57.5919 12.394 57.592C10.8856 57.592 9.65158 56.3505 9.65158 54.8421C9.65158 53.3342 10.8936 52.0927 12.394 52.0927C13.0187 52.0927 13.636 52.3092 14.1193 52.7095C15.2943 53.6591 15.4777 55.4004 14.5276 56.5754ZM58.0694 46.9603C50.1511 57.517 33.2395 53.959 22.3959 54.4673C22.3959 54.4673 20.4707 54.5842 18.537 54.9006C18.537 54.9006 19.2617 54.5922 20.2038 54.2339C27.8137 51.5844 31.4142 51.0677 36.0399 48.6931C44.7498 44.2604 53.3598 34.5619 55.1521 24.4715C51.8349 34.1785 41.7825 42.5191 32.6227 45.9103C26.3468 48.2268 15.0109 50.4764 15.0109 50.4764L14.5526 50.2345C6.83472 46.477 6.60082 29.7543 20.6286 24.355C26.7716 21.9885 32.6477 23.2884 39.2825 21.7051C46.3672 20.0223 54.5603 14.7059 57.894 7.77375C61.628 18.8642 66.1211 36.2282 58.0694 46.9603Z" fill="#77BC1F"/>
</g>
</g>
<defs>
<linearGradient id="paint0_linear_249_26" x1="198.453" y1="1.65585" x2="230.853" y2="32.36" gradientUnits="userSpaceOnUse">
<stop stop-color="#5A9FD4"/>
<stop offset="1" stop-color="#306998"/>
</linearGradient>
<linearGradient id="paint1_linear_249_26" x1="247.452" y1="45.964" x2="236.404" y2="28.7474" gradientUnits="userSpaceOnUse">
<stop stop-color="#FFD43B"/>
<stop offset="1" stop-color="#FFE873"/>
</linearGradient>
<radialGradient id="paint2_radial_249_26" cx="0" cy="0" r="1" gradientUnits="userSpaceOnUse" gradientTransform="translate(232.052 60.2874) rotate(-90) scale(3.61069 17.6375)">
<stop stop-color="#B8B8B8" stop-opacity="0.498"/>
<stop offset="1" stop-color="#7F7F7F" stop-opacity="0"/>
</radialGradient>
</defs>
</svg>
