<svg width="300" height="200" viewBox="0 0 300 200" fill="none" xmlns="http://www.w3.org/2000/svg">
<g id="Event driven sync">
<g id="mongodb">
<rect id="Rectangle 12" x="228.09" y="127.799" width="71.9101" height="72.2022" rx="8" fill="#023430"/>
<path id="Vector" fill-rule="evenodd" clip-rule="evenodd" d="M275.205 153.71C275.973 155.943 276.527 158.223 276.709 160.586C276.935 163.517 276.832 166.428 276.216 169.311C276.2 169.39 276.164 169.465 276.138 169.542C275.945 169.542 275.748 169.518 275.559 169.548C273.965 169.799 272.371 170.06 270.778 170.319C269.131 170.587 267.482 170.844 265.838 171.131C265.256 171.232 264.535 171.111 264.3 171.92C264.293 171.942 264.226 171.946 264.187 171.958L264.267 167.124L264.186 155.46L264.953 155.328C266.208 155.122 267.463 154.912 268.719 154.712C270.218 154.473 271.718 154.24 273.218 154.007C273.879 153.904 274.542 153.809 275.205 153.71Z" fill="#439934"/>
<path id="Vector_2" fill-rule="evenodd" clip-rule="evenodd" d="M262.603 186.051C261.793 185.352 260.955 184.684 260.179 183.949C256.004 179.994 252.95 175.34 251.446 169.729C251.031 168.185 250.755 166.615 250.666 165.019C250.604 163.903 250.514 162.776 250.592 161.665C250.802 158.71 251.227 155.783 252.09 152.937L252.138 152.871C252.222 152.983 252.342 153.082 252.385 153.208C253.227 155.7 254.064 158.193 254.896 160.688C257.51 168.527 260.121 176.369 262.74 184.206C262.791 184.359 262.924 184.485 263.019 184.623L262.603 186.051Z" fill="#45A538"/>
<path id="Vector_3" fill-rule="evenodd" clip-rule="evenodd" d="M275.205 153.71C274.542 153.809 273.879 153.904 273.217 154.006C271.718 154.24 270.217 154.472 268.719 154.711C267.463 154.912 266.208 155.121 264.953 155.327L264.185 155.459L264.18 154.957C264.154 154.544 264.111 154.131 264.106 153.718C264.073 151.083 264.052 148.448 264.02 145.814C263.999 144.165 263.969 142.516 263.936 140.867C263.915 139.843 263.893 138.818 263.847 137.795C263.822 137.245 263.734 136.698 263.698 136.149C263.678 135.833 263.706 135.514 263.712 135.197C264.103 135.958 264.486 136.725 264.888 137.481C265.524 138.676 266.537 139.556 267.448 140.516C271.052 144.312 273.61 148.725 275.205 153.71Z" fill="#46A037"/>
<path id="Vector_4" fill-rule="evenodd" clip-rule="evenodd" d="M264.186 171.958C264.225 171.946 264.293 171.942 264.299 171.92C264.534 171.111 265.255 171.231 265.838 171.13C267.482 170.845 269.131 170.587 270.778 170.319C272.371 170.06 273.964 169.799 275.559 169.548C275.747 169.518 275.944 169.542 276.137 169.542C275.839 170.609 275.605 171.7 275.227 172.739C274.797 173.917 274.278 175.066 273.727 176.193C272.901 177.874 271.88 179.45 270.684 180.888C269.764 181.998 268.74 183.024 267.713 184.038C267.145 184.598 266.476 185.054 265.853 185.558L265.692 185.447L265.11 184.948L264.509 183.624C264.098 182.079 263.874 180.491 263.841 178.892L263.852 178.623L263.934 177.456C263.961 177.058 263.998 176.66 264.014 176.261C264.076 174.826 264.13 173.392 264.186 171.958Z" fill="#409433"/>
<path id="Vector_5" fill-rule="evenodd" clip-rule="evenodd" d="M264.187 171.958C264.13 173.392 264.077 174.826 264.016 176.261C263.999 176.66 263.963 177.058 263.935 177.456L263.569 177.595C262.755 175.19 261.941 172.809 261.144 170.423C259.827 166.475 258.525 162.52 257.21 158.571C256.148 155.384 255.078 152.199 254.001 149.016C253.95 148.867 253.806 148.751 253.705 148.619L256.05 144.289C256.131 144.43 256.237 144.561 256.288 144.712C257.374 147.935 258.455 151.161 259.53 154.388C260.927 158.587 262.315 162.789 263.711 166.988C263.766 167.156 263.858 167.311 263.946 167.499L264.267 167.124L264.187 171.958Z" fill="#4FAA41"/>
<path id="Vector_6" fill-rule="evenodd" clip-rule="evenodd" d="M253.705 148.619C253.806 148.751 253.95 148.868 254.001 149.017C255.078 152.199 256.148 155.384 257.21 158.572C258.526 162.521 259.827 166.475 261.144 170.423C261.94 172.809 262.755 175.19 263.569 177.596L263.935 177.457L263.854 178.624L263.779 178.893C263.652 180.17 263.545 181.45 263.389 182.725C263.311 183.363 263.146 183.991 263.02 184.623C262.925 184.485 262.792 184.36 262.74 184.207C260.122 176.368 257.51 168.527 254.896 160.688C254.064 158.193 253.227 155.7 252.385 153.209C252.342 153.082 252.222 152.983 252.138 152.871L253.705 148.619Z" fill="#4AA73C"/>
<path id="Vector_7" fill-rule="evenodd" clip-rule="evenodd" d="M264.266 167.124L263.945 167.499C263.858 167.311 263.766 167.156 263.71 166.988C262.315 162.789 260.926 158.587 259.529 154.388C258.454 151.161 257.374 147.936 256.287 144.713C256.237 144.562 256.131 144.43 256.05 144.29L258.95 140.459C259.042 140.582 259.172 140.691 259.219 140.829C260.025 143.196 260.823 145.565 261.616 147.936C262.357 150.151 263.087 152.368 263.837 154.58C263.887 154.728 264.062 154.833 264.179 154.958L264.184 155.46C264.212 159.347 264.239 163.236 264.266 167.124Z" fill="#57AE47"/>
<path id="Vector_8" fill-rule="evenodd" clip-rule="evenodd" d="M264.18 154.957C264.063 154.832 263.888 154.727 263.838 154.579C263.088 152.367 262.358 150.15 261.617 147.936C260.824 145.564 260.026 143.195 259.22 140.828C259.173 140.69 259.043 140.581 258.951 140.458C259.894 139.531 260.808 138.57 261.789 137.686C262.662 136.9 263.363 136.057 263.395 134.816C263.396 134.764 263.423 134.713 263.464 134.568L263.713 135.196C263.707 135.514 263.679 135.832 263.699 136.148C263.735 136.698 263.823 137.245 263.848 137.795C263.894 138.818 263.916 139.842 263.937 140.867C263.97 142.516 264 144.164 264.021 145.814C264.053 148.448 264.074 151.083 264.107 153.718C264.111 154.132 264.154 154.544 264.18 154.957Z" fill="#60B24F"/>
<path id="Vector_9" fill-rule="evenodd" clip-rule="evenodd" d="M263.019 184.623C263.145 183.99 263.311 183.362 263.389 182.724C263.544 181.45 263.651 180.169 263.778 178.892L263.81 178.887L263.842 178.892C263.874 180.491 264.099 182.08 264.509 183.624C264.425 183.736 264.306 183.835 264.261 183.961C263.913 184.947 263.585 185.941 263.235 186.927C263.187 187.061 263.054 187.166 262.96 187.285L262.602 186.051L263.019 184.623Z" fill="#A9AA88"/>
<path id="Vector_10" fill-rule="evenodd" clip-rule="evenodd" d="M262.96 187.285C263.054 187.167 263.188 187.062 263.235 186.927C263.585 185.942 263.914 184.948 264.262 183.962C264.306 183.836 264.425 183.736 264.51 183.625L265.111 184.949C264.992 185.119 264.828 185.271 264.762 185.46L263.611 188.855C263.563 188.991 263.401 189.087 263.293 189.202L262.96 187.285Z" fill="#B6B598"/>
<path id="Vector_11" fill-rule="evenodd" clip-rule="evenodd" d="M263.293 189.201C263.402 189.087 263.563 188.99 263.611 188.854L264.762 185.459C264.828 185.271 264.992 185.118 265.111 184.949L265.693 185.447C265.412 185.726 265.256 186.049 265.35 186.456L265.173 187.037C265.092 187.137 264.976 187.223 264.936 187.337C264.534 188.493 264.151 189.655 263.746 190.811C263.695 190.957 263.552 191.072 263.452 191.201C263.4 190.534 263.346 189.868 263.293 189.201Z" fill="#C2C1A7"/>
<path id="Vector_12" fill-rule="evenodd" clip-rule="evenodd" d="M263.452 191.201C263.552 191.072 263.695 190.957 263.746 190.811C264.151 189.655 264.535 188.493 264.937 187.337C264.976 187.224 265.092 187.137 265.173 187.037L264.93 189.704C264.864 189.78 264.77 189.845 264.739 189.933C264.463 190.71 264.204 191.492 263.927 192.268C263.87 192.428 263.761 192.57 263.676 192.719C263.6 192.62 263.465 192.523 263.458 192.419C263.434 192.015 263.451 191.608 263.452 191.201Z" fill="#CECDB7"/>
<path id="Vector_13" fill-rule="evenodd" clip-rule="evenodd" d="M263.676 192.719C263.761 192.569 263.87 192.427 263.927 192.268C264.204 191.492 264.463 190.71 264.738 189.933C264.77 189.845 264.864 189.78 264.929 189.704L264.935 191.455L264.351 192.957L263.676 192.719Z" fill="#DBDAC7"/>
<path id="Vector_14" fill-rule="evenodd" clip-rule="evenodd" d="M264.352 192.958L264.935 191.455L265.055 193.233L264.352 192.958Z" fill="#EBE9DC"/>
<path id="Vector_15" fill-rule="evenodd" clip-rule="evenodd" d="M265.35 186.457C265.256 186.049 265.412 185.726 265.693 185.448L265.855 185.559L265.35 186.457Z" fill="#CECDB7"/>
<path id="Vector_16" fill-rule="evenodd" clip-rule="evenodd" d="M263.842 178.894L263.81 178.888L263.779 178.893L263.853 178.624L263.842 178.894Z" fill="#4FAA41"/>
</g>
<g id="python-to-mongodb">
<path id="python-to-mongodb-arrow-stem" d="M260.112 90.8577V109.472" stroke="white" stroke-width="2" stroke-linecap="round"/>
<path id="python-to-mongodb-arrow-right-wing" class="python-to-mongodb-arrow-wings" d="M261.112 109.472L267.292 104.509" stroke="white" stroke-width="2" stroke-linecap="round"/>
<path id="python-to-mongodb-arrow-left-wing" class="python-to-mongodb-arrow-wings" d="M260.112 109.472L253.933 104.509" stroke="white" stroke-width="2" stroke-linecap="round"/>
</g>
<g id="postgresql">
<path id="Vector_17" d="M53.8378 179.47C54.313 175.619 54.1707 175.054 57.1161 175.678L57.8636 175.742C60.1286 175.842 63.0915 175.387 64.8323 174.6C68.5797 172.907 70.8011 170.081 67.107 170.823C58.6789 172.516 58.0997 169.737 58.0997 169.737C66.9993 156.88 70.7194 140.56 67.5077 136.564C58.7491 125.668 43.5884 130.821 43.3348 130.954L43.2537 130.968C41.5885 130.632 39.7248 130.431 37.6311 130.398C33.8172 130.337 30.9233 131.372 28.7279 132.992C28.7279 132.992 1.68165 122.143 2.94005 146.636C3.20759 151.847 10.6103 186.063 19.4403 175.728C22.6677 171.949 25.7862 168.753 25.7862 168.753C27.3345 169.755 29.1891 170.266 31.1333 170.082L31.284 169.957C31.2368 170.427 31.2574 170.886 31.344 171.429C29.0699 173.904 29.7381 174.338 25.1906 175.249C20.5891 176.172 23.2924 177.816 25.0568 178.245C27.1965 178.766 32.146 179.504 35.4908 174.946L35.3576 175.466C36.2498 176.162 36.1899 180.462 36.3158 183.534C36.4423 186.607 36.6536 189.474 37.297 191.165C37.9404 192.855 38.6995 197.21 44.6761 195.962C49.671 194.923 53.4898 193.423 53.8378 179.47Z" fill="black"/>
<path id="Vector_18" d="M42.7301 199.003C40.0868 199.003 38.3653 198.008 37.32 197.046C35.742 195.597 35.1161 193.729 34.7421 192.613L34.5805 192.148C33.8275 190.169 33.572 187.319 33.4207 183.65C33.3977 183.099 33.382 182.531 33.3644 181.93C33.3517 181.489 33.336 180.937 33.313 180.359C32.3607 180.802 31.3498 181.113 30.3095 181.284C28.4458 181.594 26.4423 181.493 24.3534 180.985C22.8796 180.626 21.3482 179.882 20.4753 178.733C17.9313 180.903 15.5047 180.609 14.1827 180.179C11.8505 179.422 9.7635 177.294 7.80175 173.674C6.40413 171.096 5.05252 167.737 3.78383 163.689C1.57451 156.641 0.170841 149.216 0.0461512 146.779C-0.346078 139.15 1.76336 133.694 6.31455 130.564C13.4939 125.626 24.3716 128.53 28.3375 129.848C31.002 128.285 34.1368 127.524 37.6789 127.579C39.5814 127.609 41.393 127.771 43.0757 128.064C44.8311 127.526 48.2982 126.755 52.2671 126.803C59.5796 126.888 65.6392 129.662 69.7897 134.827C72.752 138.512 71.2872 146.249 70.151 150.534C68.5518 156.56 65.7499 162.97 62.3083 168.55C63.2428 168.557 64.5969 168.448 66.5217 168.06C70.3193 167.297 71.43 169.28 71.7314 170.167C72.939 173.728 67.6899 176.419 66.0526 177.159C63.9546 178.108 60.5341 178.685 57.7329 178.56L57.6106 178.553L56.8746 178.489L56.8019 179.087L56.7317 179.671C56.5435 186.743 55.506 191.221 53.3711 194.18C51.1334 197.283 48.0234 198.152 45.2838 198.724C44.3493 198.918 43.5 199.003 42.7301 199.003ZM37.1675 173.265C38.8738 174.595 39.0233 177.097 39.1571 181.772C39.174 182.356 39.1897 182.908 39.2109 183.424C39.2751 184.985 39.4258 188.642 40.0142 190.187C40.0971 190.406 40.1715 190.628 40.2502 190.863C40.9058 192.817 41.2344 193.797 44.069 193.207C46.4484 192.71 47.6717 192.265 48.6293 190.938C50.0208 189.008 50.7992 185.127 50.9421 179.401L53.8372 179.47L50.9621 179.134L51.0468 178.435C51.3222 176.13 51.5208 174.466 53.1024 173.365C54.3717 172.482 55.8177 172.568 56.9696 172.77C55.7039 171.839 55.3541 170.747 55.2608 170.299L55.0193 169.141L55.6979 168.161C59.6062 162.515 62.8288 155.576 64.5406 149.122C66.2995 142.491 65.7633 138.97 65.227 138.304C58.1275 129.472 45.8165 133.118 44.5308 133.532L44.3135 133.646L43.224 133.844L42.6659 133.731C41.1273 133.42 39.4179 133.248 37.5857 133.219C34.707 133.172 32.3845 133.834 30.4802 135.241L29.1589 136.217L27.6257 135.602C24.3498 134.298 14.7281 131.676 9.65092 135.177C6.83268 137.121 5.54886 140.929 5.83455 146.497C5.92898 148.335 7.21159 155.293 9.32769 162.042C12.2519 171.368 14.9091 174.467 16.0186 174.827C16.2123 174.89 16.7147 174.51 17.2146 173.926C19.2993 171.492 21.4579 169.12 23.6876 166.812L25.3643 165.094L27.3914 166.405C28.2086 166.934 29.1098 167.234 30.0353 167.291L34.8698 163.276L34.1695 170.235C34.1537 170.391 34.1459 170.604 34.2088 170.999L34.4194 172.318L33.5055 173.313L33.4001 173.428L36.0562 174.622L37.1675 173.265Z" fill="black"/>
<path id="Vector_19" d="M67.107 170.823C58.6783 172.516 58.099 169.737 58.099 169.737C66.9986 156.88 70.7187 140.558 67.5083 136.564C58.7497 125.669 43.5877 130.821 43.3347 130.955L43.253 130.969C41.5879 130.633 39.7242 130.432 37.6293 130.399C33.8153 130.339 30.9226 131.373 28.7272 132.994C28.7272 132.994 1.68038 122.145 2.93818 146.638C3.20572 151.849 10.6084 186.064 19.4384 175.73C22.6658 171.951 25.7837 168.755 25.7837 168.755C27.3326 169.757 29.1866 170.268 31.1302 170.084L31.2816 169.959C31.2343 170.428 31.2561 170.888 31.3421 171.431C29.0674 173.906 29.7356 174.34 25.1881 175.251C20.5867 176.174 23.2899 177.818 25.0549 178.247C27.194 178.768 32.1441 179.506 35.4883 174.948L35.3546 175.468C36.2462 176.163 36.872 179.989 36.7673 183.458C36.662 186.926 36.5918 189.308 37.2945 191.168C37.9967 193.028 38.6964 197.212 44.6742 195.965C49.6691 194.923 52.2573 192.222 52.6181 187.717C52.8735 184.514 53.4516 184.988 53.4885 182.124L53.9528 180.769C54.4878 176.427 54.0375 175.027 57.1154 175.678L57.8629 175.741C60.1279 175.842 63.0921 175.387 64.8323 174.599C68.579 172.907 70.801 170.081 67.107 170.823Z" fill="#336791"/>
<path id="Vector_20" d="M43.0322 197.265C38.0494 197.265 36.4708 193.423 35.825 191.852C34.8795 189.549 34.6755 180.614 34.8861 173.286C34.8893 173.162 34.9175 173.04 34.9692 172.927C35.0208 172.815 35.0949 172.713 35.1872 172.628C35.2795 172.543 35.3881 172.477 35.5068 172.433C35.6255 172.389 35.7519 172.368 35.8788 172.372C36.0056 172.376 36.1304 172.403 36.2462 172.454C36.362 172.504 36.4665 172.576 36.5536 172.666C36.6407 172.756 36.7089 172.861 36.7541 172.976C36.7993 173.092 36.8207 173.215 36.817 173.338C36.5743 181.79 36.9187 189.449 37.6184 191.154C38.7104 193.811 40.3665 196.135 45.0484 195.159C49.493 194.231 51.1576 192.59 51.8991 188.405C52.4681 185.194 53.5933 176.057 53.7319 174.255C53.7412 174.131 53.7753 174.011 53.8324 173.901C53.8895 173.791 53.9683 173.692 54.0645 173.612C54.1607 173.531 54.2722 173.47 54.3927 173.431C54.5133 173.393 54.6404 173.378 54.767 173.387C55.0223 173.406 55.2595 173.523 55.4265 173.712C55.5936 173.9 55.6768 174.146 55.6579 174.395C55.5133 176.272 54.3935 185.39 53.8027 188.725C52.9275 193.668 50.6643 195.91 45.4533 196.998C44.5678 197.182 43.7634 197.265 43.0322 197.265ZM16.0144 178.5C15.5788 178.498 15.1464 178.429 14.7336 178.293C11.4971 177.242 8.41433 172.11 5.57067 163.038C3.40615 156.133 2.03456 148.925 1.9141 146.582C1.55759 139.637 3.39404 134.724 7.37383 131.979C15.2469 126.548 28.4912 131.72 29.0511 131.943C29.2883 132.037 29.4773 132.219 29.5765 132.449C29.6757 132.679 29.677 132.938 29.5802 133.169C29.4833 133.4 29.2961 133.584 29.0599 133.681C28.8237 133.777 28.5577 133.779 28.3206 133.684C28.1928 133.634 15.4926 128.68 8.48636 133.516C5.08341 135.866 3.52115 140.23 3.84256 146.489C3.94364 148.462 5.22505 155.497 7.41741 162.489C9.95601 170.588 12.8451 175.698 15.3443 176.509C15.7365 176.637 16.9302 177.024 18.6365 175.026C20.6264 172.699 22.6908 170.434 24.8268 168.233C25.0055 168.06 25.2469 167.961 25.4994 167.959C25.7518 167.956 25.9952 168.05 26.1774 168.22C26.3597 168.39 26.4663 168.623 26.4746 168.869C26.4828 169.114 26.3919 169.353 26.2214 169.535C26.1923 169.564 23.2876 172.521 20.1219 176.229C18.6226 177.985 17.1856 178.5 16.0144 178.5ZM58.0392 170.576C57.8641 170.576 57.6923 170.529 57.5423 170.441C57.3923 170.353 57.2696 170.227 57.1874 170.077C57.1052 169.926 57.0666 169.757 57.0757 169.587C57.0848 169.416 57.1412 169.252 57.239 169.11C66.2354 156.112 69.3932 140.407 66.6888 137.041C63.2846 132.806 58.478 130.594 52.4015 130.467C47.9023 130.372 44.3263 131.491 43.7416 131.686L43.5945 131.744C43.0067 131.924 42.5558 131.61 42.3857 131.244C42.2887 131.034 42.274 130.797 42.3444 130.577C42.4148 130.357 42.5653 130.17 42.7676 130.05C42.7955 130.035 42.8839 129.998 43.0273 129.947C44.0206 129.593 47.6511 128.532 52.1479 128.582C58.8714 128.651 64.4256 131.176 68.2087 135.883C69.9985 138.11 70.0027 143.241 68.2202 149.96C66.4031 156.812 62.9838 164.174 58.84 170.162C58.6547 170.431 58.3497 170.576 58.0392 170.576ZM58.4992 176.593C56.9629 176.593 55.5859 176.382 54.7615 175.901C53.9141 175.407 53.7525 174.735 53.7313 174.378C53.5001 170.424 55.7409 169.735 56.8837 169.421C56.7245 169.187 56.4981 168.911 56.2638 168.626C55.5974 167.815 54.6846 166.705 53.9813 165.044C53.8711 164.785 53.5261 164.182 53.1266 163.484C50.9603 159.701 46.4527 151.83 49.3484 147.8C50.6885 145.935 53.3572 145.2 57.2892 145.61C56.1325 142.179 50.6243 131.445 37.5543 131.237C33.6235 131.173 30.3997 132.35 27.9773 134.732C22.5539 140.065 22.7501 149.714 22.7531 149.811C22.7564 149.934 22.7348 150.057 22.6893 150.172C22.6439 150.288 22.5756 150.393 22.4883 150.483C22.401 150.572 22.2964 150.644 22.1806 150.694C22.0647 150.745 21.9398 150.772 21.8131 150.776C21.6863 150.779 21.5601 150.758 21.4417 150.713C21.3233 150.669 21.215 150.603 21.1229 150.518C21.0309 150.433 20.957 150.331 20.9054 150.218C20.8538 150.105 20.8255 149.984 20.8222 149.86C20.8101 149.432 20.6079 139.306 26.6052 133.408C29.4119 130.648 33.1066 129.285 37.5864 129.357C45.9479 129.491 51.3301 133.63 54.3723 137.078C57.6887 140.836 59.3145 144.982 59.4483 146.365C59.5481 147.394 58.7897 147.6 58.6366 147.631L58.2879 147.638C54.4292 147.037 51.9536 147.455 50.93 148.878C48.7273 151.944 52.9916 159.389 54.8123 162.568C55.2772 163.379 55.6125 163.966 55.7663 164.328C56.3643 165.74 57.1445 166.689 57.771 167.451C58.3224 168.122 58.8 168.704 58.9707 169.386C59.05 169.522 60.1752 171.142 66.8522 169.8C68.5258 169.464 69.5294 169.751 69.8363 170.655C70.4398 172.432 67.0538 174.504 65.1792 175.352C63.4995 176.112 60.8187 176.593 58.4992 176.593ZM55.6567 174.223C55.8686 174.431 56.9284 174.79 59.1232 174.698C61.0747 174.617 63.1327 174.204 64.3675 173.646C65.9467 172.932 67.0011 172.133 67.5471 171.588L67.2444 171.642C62.9753 172.5 59.9555 172.386 58.2692 171.302C58.1559 171.229 58.0468 171.15 57.9423 171.066C57.7595 171.136 57.5906 171.182 57.4702 171.215C56.5138 171.476 55.5248 171.746 55.6567 174.223ZM28.0784 179.477C27.018 179.477 25.9018 179.337 24.762 179.059C23.5811 178.771 21.5903 177.906 21.6206 176.484C21.6551 174.888 24.0381 174.41 24.9352 174.23C28.1759 173.58 28.3871 173.319 29.3998 172.067C29.6952 171.702 30.0626 171.248 30.5638 170.703C31.3077 169.892 32.1206 169.481 32.9801 169.481C33.5787 169.481 34.0696 169.679 34.394 169.81C35.4279 170.228 36.2904 171.237 36.6451 172.443C36.9653 173.531 36.8122 174.579 36.2154 175.393C34.256 178.065 31.442 179.477 28.0784 179.477ZM23.707 176.564C23.9982 176.783 24.5817 177.076 25.2311 177.234C26.2184 177.475 27.1759 177.597 28.079 177.597C30.8307 177.597 33.04 176.488 34.6446 174.3C34.9794 173.844 34.8789 173.264 34.7893 172.96C34.6017 172.322 34.1356 171.741 33.6556 171.547C33.3953 171.442 33.1792 171.362 32.9807 171.362C32.8742 171.362 32.5497 171.362 32.0037 171.957C31.627 172.369 31.2648 172.794 30.9179 173.231C29.6564 174.79 29.0784 175.32 25.3256 176.072C24.4098 176.255 23.9401 176.441 23.707 176.564ZM31.1333 172.227C30.9028 172.226 30.68 172.146 30.5051 171.999C30.3303 171.853 30.215 171.651 30.18 171.429C30.156 171.273 30.1398 171.115 30.1316 170.958C27.6717 170.913 25.2983 169.885 23.4964 168.055C21.2181 165.74 20.1812 162.534 20.6521 159.257C21.1636 155.7 20.9723 152.559 20.8694 150.872C20.841 150.402 20.8204 150.064 20.8216 149.829C20.8234 149.531 20.8295 148.742 23.5387 147.405C24.5024 146.929 26.4345 146.1 28.5451 145.887C32.0419 145.535 34.3468 147.051 35.0369 150.157C36.8993 158.543 35.1846 162.251 33.9322 164.96C33.6992 165.464 33.4788 165.941 33.3027 166.402L33.1471 166.809C32.4856 168.536 31.9136 170.028 32.0891 171.143C32.1084 171.265 32.1028 171.389 32.0726 171.509C32.0424 171.629 31.9882 171.742 31.9132 171.842C31.8381 171.941 31.7437 172.026 31.6352 172.09C31.5268 172.154 31.4064 172.196 31.281 172.215L31.1333 172.227ZM22.7591 150.09L22.7967 150.761C22.9032 152.514 23.1017 155.775 22.5642 159.519C22.1762 162.221 23.0236 164.858 24.8904 166.753C26.3655 168.251 28.3066 169.078 30.3017 169.078H30.3428C30.5662 168.162 30.9372 167.194 31.3367 166.152L31.4911 165.747C31.6902 165.226 31.9232 164.722 32.1702 164.188C33.3753 161.581 34.8759 158.335 33.1478 150.555C32.8058 149.014 31.9759 148.122 30.6122 147.828C27.8109 147.226 23.6362 149.277 22.7591 150.09ZM28.5881 149.691C28.5397 150.023 29.2134 150.91 30.0922 151.029C30.9693 151.149 31.7199 150.454 31.7677 150.122C31.8155 149.79 31.1424 149.423 30.2635 149.304C29.3853 149.185 28.6347 149.358 28.5881 149.691ZM30.2938 151.356L30.0474 151.34C29.5027 151.266 28.9519 150.932 28.5748 150.445C28.4422 150.274 28.2261 149.943 28.2691 149.647C28.3302 149.213 28.8738 148.953 29.7218 148.953C29.9113 148.953 30.1086 148.967 30.3071 148.994C30.7708 149.056 31.2011 149.187 31.5189 149.359C32.0697 149.659 32.1103 149.993 32.0855 150.166C32.0177 150.645 31.235 151.356 30.2938 151.356ZM28.9083 149.746C28.9355 149.951 29.4573 150.628 30.1364 150.719L30.2944 150.73C30.9215 150.73 31.39 150.249 31.4451 150.092C31.387 149.985 30.9838 149.718 30.2194 149.614C30.0548 149.592 29.8887 149.58 29.7224 149.58C29.2309 149.58 28.97 149.688 28.9083 149.746ZM55.302 149.012C55.3498 149.345 54.6768 150.232 53.7985 150.351C52.9208 150.47 52.1696 149.777 52.1212 149.444C52.0752 149.112 52.7483 148.745 53.626 148.626C54.5036 148.507 55.2536 148.68 55.302 149.012ZM53.5957 150.521C52.7507 150.521 52.0213 149.881 51.9614 149.465C51.8918 148.967 52.735 148.588 53.603 148.471C53.7942 148.445 53.9837 148.432 54.1659 148.432C54.9152 148.432 55.4116 148.646 55.4612 148.991C55.4933 149.214 55.3172 149.559 55.0139 149.87C54.8136 150.075 54.3929 150.429 53.8197 150.506L53.5957 150.521ZM54.1665 148.745C53.9994 148.745 53.8251 148.758 53.6484 148.781C52.7761 148.9 52.2556 149.24 52.281 149.423C52.3101 149.624 52.8669 150.208 53.5963 150.208L53.7761 150.196C54.2525 150.131 54.6102 149.828 54.7809 149.654C55.049 149.38 55.1555 149.122 55.1428 149.034C55.1259 148.917 54.8039 148.745 54.1665 148.745ZM56.5665 168.101C56.3915 168.101 56.2198 168.055 56.0697 167.967C55.9197 167.88 55.7969 167.754 55.7146 167.604C55.6322 167.453 55.5934 167.284 55.6023 167.114C55.6112 166.944 55.6675 166.779 55.7651 166.638C57.8219 163.647 57.4454 160.597 57.0816 157.647C56.926 156.391 56.7662 155.091 56.8074 153.844C56.8498 152.561 57.0174 151.503 57.179 150.479C57.3709 149.266 57.5525 148.12 57.4774 146.76C57.4706 146.637 57.4888 146.514 57.5309 146.397C57.5731 146.281 57.6383 146.173 57.7231 146.082C57.8078 145.99 57.9102 145.915 58.0246 145.862C58.139 145.808 58.263 145.777 58.3896 145.771C58.5162 145.764 58.643 145.782 58.7626 145.823C58.8822 145.864 58.9923 145.927 59.0867 146.01C59.1811 146.092 59.2578 146.192 59.3126 146.303C59.3674 146.415 59.3991 146.536 59.4059 146.659C59.4919 148.214 59.2867 149.51 59.0881 150.765C58.935 151.733 58.7764 152.735 58.7383 153.904C58.7013 155.009 58.846 156.182 58.9991 157.423C59.3865 160.559 59.8254 164.114 57.3703 167.684C57.2819 167.812 57.1623 167.918 57.0221 167.991C56.8819 168.063 56.7254 168.101 56.5665 168.101Z" fill="white"/>
</g>
<g id="spring-to-postgres">
<path id="spring-to-postgres-arrow-stem" d="M35.3933 90.8577V109.472" stroke="white" stroke-width="2" stroke-linecap="round"/>
<path id="spring-to-postgres-arrow-right-wing" class="spring-to-postgres-arrow-wings" d="M35.3933 109.472L41.5731 104.509" stroke="white" stroke-width="2" stroke-linecap="round"/>
<path id="spring-to-postgres-arrow-left-wing" class="spring-to-postgres-arrow-wings" d="M35.3933 109.472L29.2135 104.509" stroke="white" stroke-width="2" stroke-linecap="round"/>
</g>
<g id="python">
<path id="Vector_21" d="M263.526 0.00196961C260.561 0.0146628 257.73 0.242505 255.238 0.641069C247.898 1.81265 246.566 4.26496 246.566 8.78816V14.7609H263.911V16.7518H240.056C235.016 16.7518 230.602 19.4891 229.221 24.6984C227.628 30.6673 227.558 34.3928 229.221 40.6257C230.454 45.2657 233.398 48.571 238.44 48.571H244.404V41.4108C244.404 36.2377 249.356 31.6752 255.239 31.6752H272.564C277.386 31.6752 281.235 28.0868 281.235 23.7115V8.7888C281.235 4.54104 277.27 1.35062 272.564 0.641704C269.583 0.193636 266.491 -0.0100889 263.526 0.00196961ZM254.147 4.80569C255.938 4.80569 257.402 6.14926 257.402 7.80191C257.402 9.44757 255.938 10.7784 254.147 10.7784C252.348 10.7784 250.892 9.44757 250.892 7.80191C250.892 6.14926 252.348 4.80569 254.147 4.80569Z" fill="url(#paint0_linear_249_26)"/>
<path id="Vector_22" d="M283.398 16.7516V23.7113C283.398 29.1058 278.335 33.6468 272.563 33.6468H255.238C250.493 33.6468 246.566 37.317 246.566 41.6111V56.5351C246.566 60.7816 250.653 63.2802 255.238 64.4981C260.728 65.956 265.993 66.22 272.563 64.4981C276.929 63.3551 281.234 61.0564 281.234 56.5351V50.5617H263.911V48.5702H289.908C294.948 48.5702 296.828 45.3937 298.581 40.6249C300.392 35.7158 300.314 30.9946 298.581 24.6975C297.335 20.1629 294.956 16.751 289.908 16.751L283.398 16.7516ZM273.653 54.5435C275.452 54.5435 276.908 55.8744 276.908 57.5214C276.908 59.1727 275.452 60.5163 273.653 60.5163C271.862 60.5163 270.399 59.1727 270.399 57.5214C270.399 55.8744 271.862 54.5435 273.653 54.5435Z" fill="url(#paint1_linear_249_26)"/>
<path id="Vector_23" opacity="0.444" d="M287.35 68.1317C287.35 70.3803 276.944 72.2036 264.107 72.2036C251.27 72.2036 240.864 70.3803 240.864 68.1317C240.864 65.8825 251.27 64.0591 264.107 64.0591C276.944 64.0591 287.35 65.8818 287.35 68.1317Z" fill="url(#paint2_radial_249_26)"/>
</g>
<g id="redis-to-python">
<!-- <circle id="circle" cx="200" cy="37.0015" r="1.5" stroke="white" stroke-width="3"/> -->
<!-- <circle id="circle_2" cx="208" cy="37.0015" r="1.5" stroke="white" stroke-width="3"/> -->
<circle id="cicle" cx="216" cy="37.0015" r="1.5" stroke="white" stroke-width="3"/>
<circle id="circle_2" cx="208" cy="37.0015" r="1.5" stroke="white" stroke-width="3"/>
<circle id="circle" cx="200" cy="37.0015" r="1.5" stroke="white" stroke-width="3"/>
</g>
<g id="redis">
<path id="Vector_24" d="M184.088 55.653C180.25 58.0053 160.371 67.5489 156.132 70.17C151.893 72.7912 149.544 72.724 146.222 70.8421C142.899 68.9603 121.76 59.0135 117.922 56.8628C116.032 55.7875 115.058 54.9138 115.058 54.04V45.5046C115.058 45.5046 142.555 38.4477 147.024 36.6331C151.492 34.7513 152.981 34.6841 156.762 36.2971C160.543 37.9101 183.171 42.6818 186.895 44.2948V52.6959C186.895 53.5696 186.036 54.5105 184.088 55.653Z" fill="#A41E11"/>
<path id="Vector_25" d="M184.088 47.1846C180.25 49.5369 160.371 59.0804 156.132 61.7016C151.893 64.3227 149.544 64.2555 146.222 62.3737C142.899 60.4918 121.76 50.4778 117.922 48.3271C114.141 46.1765 114.027 44.6979 117.75 43.0177C121.474 41.2702 142.498 31.5923 146.966 29.7776C151.435 27.8958 152.924 27.8286 156.705 29.4416C160.486 31.0546 180.25 40.2621 183.973 41.8751C187.812 43.4881 187.926 44.8323 184.088 47.1846Z" fill="#D82C20"/>
<path id="Vector_26" d="M184.088 41.8079C180.25 44.1602 160.371 53.7038 156.132 56.3249C151.893 58.8788 149.544 58.8788 146.222 56.997C142.899 55.1151 121.76 45.1011 117.922 42.9504C116.032 41.8751 115.058 41.0014 115.058 40.1277V31.5922C115.058 31.5922 142.555 24.5354 147.024 22.7207C151.492 20.8389 152.981 20.7717 156.762 22.3847C160.543 23.9977 183.171 28.7695 186.895 30.3825V38.7835C186.895 39.6572 186.036 40.5982 184.088 41.8079Z" fill="#A41E11"/>
<path id="Vector_27" d="M184.088 33.2725C180.25 35.6248 160.372 45.1683 156.132 47.7895C151.893 50.3434 149.544 50.3434 146.222 48.4615C142.899 46.5797 121.76 36.5657 117.922 34.415C114.084 32.2643 114.027 30.7858 117.75 29.1056C121.474 27.3581 142.498 17.6801 146.966 15.8655C151.435 13.9837 152.924 13.9165 156.705 15.5295C160.486 17.1425 180.25 26.35 183.974 27.963C187.812 29.576 187.926 30.9202 184.088 33.2725Z" fill="#D82C20"/>
<path id="Vector_28" d="M184.088 27.3579C180.25 29.7102 160.372 39.2538 156.132 41.8749C151.893 44.4288 149.544 44.4288 146.222 42.547C142.899 40.7323 121.761 30.7183 117.922 28.5676C116.032 27.4923 115.001 26.6186 115.001 25.7449V17.2094C115.001 17.2094 142.498 10.1526 146.967 8.33793C151.435 6.4561 152.924 6.38889 156.705 8.00189C160.486 9.61489 183.114 14.3867 186.838 15.9997V24.4007C186.895 25.2744 186.036 26.1481 184.088 27.3579Z" fill="#A41E11"/>
<path id="Vector_29" d="M184.088 18.8227C180.25 21.175 160.372 30.7186 156.132 33.3397C151.893 35.8936 149.544 35.8936 146.222 34.0118C142.899 32.1299 121.76 22.1831 117.922 20.0324C114.084 17.8818 114.027 16.4032 117.75 14.723C121.474 12.9756 142.498 3.29757 146.966 1.48295C151.435 -0.398884 152.924 -0.466093 156.705 1.14691C160.486 2.75991 180.25 11.9674 183.974 13.5804C187.812 15.1934 187.926 16.5376 184.088 18.8227Z" fill="#D82C20"/>
<path id="Vector_30" d="M160.372 10.6234L154.185 11.4298L152.752 15.3279L150.518 10.9594L143.357 10.2201L148.685 7.93502L147.081 4.44019L152.122 6.72527L156.82 4.91064L155.559 8.53989L160.372 10.6234ZM152.409 29.7105L140.78 24.065L157.45 21.1078L152.409 29.7105Z" fill="white"/>
<path id="Vector_31" d="M136.311 20.9058C141.215 20.9058 145.19 19.1004 145.19 16.8733C145.19 14.6462 141.215 12.8408 136.311 12.8408C131.407 12.8408 127.432 14.6462 127.432 16.8733C127.432 19.1004 131.407 20.9058 136.311 20.9058Z" fill="white"/>
<path id="Vector_32" d="M167.761 11.6985L177.615 16.2687L167.761 20.8388V11.6985Z" fill="#7A0C00"/>
<path id="Vector_33" d="M156.877 16.8063L167.761 11.6985V20.8388L166.673 21.3765L156.877 16.8063Z" fill="#AD2115"/>
</g>
<g id="spring-to-redis">
<circle id="circle_3" cx="88" cy="37.0015" r="1.5" stroke="white" stroke-width="3"/>
<circle id="circle_4" cx="96" cy="37.0015" r="1.5" stroke="white" stroke-width="3"/>
<circle id="cicle_2" cx="104" cy="37.0015" r="1.5" stroke="white" stroke-width="3"/>
</g>
<g id="spring">
<path id="Vector_34" d="M67.7203 4.72414C66.7116 7.14417 65.4202 9.43643 63.8731 11.5532C57.0947 4.77867 47.9039 0.9726 38.3205 0.971436C18.5013 0.971436 2.19177 17.2945 2.19177 37.1356C2.19156 42.0351 3.18619 46.8837 5.11539 51.3874C7.04458 55.8912 9.86816 59.9563 13.415 63.3365L14.7475 64.5181C21.2597 70.0087 29.5021 73.0224 38.02 73.0274C56.8634 73.0274 72.7037 58.262 74.0452 39.4433C75.0305 30.2312 72.3284 18.5797 67.7203 4.72414ZM18.548 63.5424C18.2579 63.8998 17.8918 64.188 17.4762 64.386C17.0606 64.584 16.6062 64.6868 16.1458 64.687C14.4476 64.687 13.0582 63.2892 13.0582 61.5909C13.0582 59.8932 14.4566 58.4955 16.1458 58.4955C16.8492 58.4955 17.5442 58.7391 18.0883 59.1899C19.4112 60.259 19.6177 62.2195 18.548 63.5424ZM67.5707 52.717C58.6557 64.6026 39.6153 60.5966 27.4068 61.1689C27.4068 61.1689 25.2392 61.3006 23.0621 61.6568C23.0621 61.6568 23.878 61.3096 24.9387 60.9061C33.5065 57.9232 37.5603 57.3414 42.7681 54.6679C52.5745 49.6773 62.2683 38.7579 64.2861 27.3974C60.5514 38.3263 49.2337 47.7168 38.9209 51.5348C31.855 54.1429 19.0922 56.6757 19.0922 56.6757L18.5762 56.4033C9.88682 52.1729 9.62347 33.3452 25.417 27.2663C32.3333 24.6018 38.949 26.0654 46.419 24.2828C54.3954 22.3881 63.6199 16.4026 67.3732 8.59783C71.5772 21.0843 76.6359 40.634 67.5707 52.717Z" fill="#77BC1F"/>
</g>
<circle id="blob" cx="7" cy="6.00146" r="4" fill="#D82C20"/>
</g>
<defs>
<linearGradient id="paint0_linear_249_26" x1="226.261" y1="1.86953" x2="262.806" y2="36.3607" gradientUnits="userSpaceOnUse">
<stop stop-color="#5A9FD4"/>
<stop offset="1" stop-color="#306998"/>
</linearGradient>
<linearGradient id="paint1_linear_249_26" x1="281.317" y1="51.856" x2="268.832" y2="32.4789" gradientUnits="userSpaceOnUse">
<stop stop-color="#FFD43B"/>
<stop offset="1" stop-color="#FFE873"/>
</linearGradient>
<radialGradient id="paint2_radial_249_26" cx="0" cy="0" r="1" gradientUnits="userSpaceOnUse" gradientTransform="translate(264.013 68.0151) rotate(-90) scale(4.07343 19.8174)">
<stop stop-color="#B8B8B8" stop-opacity="0.498"/>
<stop offset="1" stop-color="#7F7F7F" stop-opacity="0"/>
</radialGradient>
</defs>
</svg>
